<svg width="24" height="24" viewBox="0 0 24 24" fill="none" xmlns="http://www.w3.org/2000/svg">
<path fill-rule="evenodd" clip-rule="evenodd" d="M14.8369 13.4227C15.3604 12.6322 15.6653 11.684 15.6653 10.6654C15.6653 7.90395 13.4268 5.66537 10.6653 5.66537C7.90392 5.66537 5.66534 7.90395 5.66534 10.6654C5.66534 13.4268 7.90392 15.6654 10.6653 15.6654C11.684 15.6654 12.6322 15.3604 13.4227 14.837L17.0585 18.4728L18.4727 17.0586L14.8369 13.4227ZM10.6653 13.6654C12.3222 13.6654 13.6653 12.3222 13.6653 10.6654C13.6653 9.00852 12.3222 7.66537 10.6653 7.66537C9.00849 7.66537 7.66534 9.00852 7.66534 10.6654C7.66534 12.3222 9.00849 13.6654 10.6653 13.6654Z" fill="#232729"/>
</svg>
