<svg width="36" height="36" viewBox="0 0 36 36" fill="none" xmlns="http://www.w3.org/2000/svg">
<g clip-path="url(#clip0_3418_1732)">
<path d="M3.0141 33.9858L7.65651 33.9858C8.54741 33.9858 8.99357 32.9087 8.36361 32.2787L3.7212 27.6364C3.09123 27.0064 2.01409 27.4526 2.0141 28.3435L2.0141 32.9858C2.0141 33.5381 2.46182 33.9858 3.0141 33.9858Z" fill="#6A767C"/>
<path d="M12.1603 28.6986L9.875 26.2381V12L14.4455 12L14.4455 26.2381L12.1603 28.6986Z" fill="#232729"/>
<path d="M13.4559 7C14.0028 7 14.4464 7.47674 14.4475 8.06559L14.4516 10.3266H9.88109L9.87696 8.0698C9.87588 7.47931 10.3202 7 10.8686 7H13.4559Z" fill="#232729"/>
<path d="M25.6656 24.1175C25.6656 25.4 24.6239 26.4405 23.3378 26.4405H17.0522L14.8419 28.6467H23.3378C25.8432 28.6467 27.875 26.6193 27.875 24.1175C27.875 21.6157 25.8432 19.5883 23.3378 19.5883H21.0495C20.3954 19.5883 19.8659 19.0591 19.8659 18.4073C19.8659 17.7555 20.3954 17.2264 21.0495 17.2264H22.7657C24.9552 17.2264 26.7308 15.4547 26.7308 13.2682V10.452H24.5215V13.2682C24.5215 14.2354 23.7358 15.0202 22.7657 15.0202H21.0495C19.176 15.0202 17.6565 16.5362 17.6565 18.4073C17.6565 20.2784 19.176 21.7945 21.0495 21.7945H23.3378C24.6239 21.7945 25.6656 22.835 25.6656 24.1175Z" fill="#232729"/>
</g>
<defs>
<clipPath id="clip0_3418_1732">
<rect width="36" height="36" rx="4" fill="white"/>
</clipPath>
</defs>
</svg>
