<svg width="24" height="44" viewBox="0 0 24 44" fill="none" xmlns="http://www.w3.org/2000/svg">
<g clip-path="url(#clip0_8307_6281)">
<g opacity="0.7">
<mask id="mask0_8307_6281" style="mask-type:alpha" maskUnits="userSpaceOnUse" x="-1" y="22" width="25" height="31">
<path d="M0 22H23.5V40.5L-1 53L0 22Z" fill="#E0E0E0"/>
</mask>
<g mask="url(#mask0_8307_6281)">
<mask id="path-2-outside-1_8307_6281" maskUnits="userSpaceOnUse" x="3.82031" y="-7.43094e-07" width="17" height="44" fill="black">
<rect fill="white" x="3.82031" y="-7.43094e-07" width="17" height="44"/>
<path d="M5.23203 33C4.46224 31.6667 5.42449 30 6.96408 30L8.66016 30C9.76473 30 10.6602 29.1046 10.6602 28L10.6602 16C10.6602 14.8954 9.76473 14 8.66016 14L6.96408 14C5.42449 14 4.46224 12.3333 5.23203 11L10.4281 2.00004C11.1979 0.666698 13.1224 0.666698 13.8922 2.00004L19.0883 11C19.8581 12.3333 18.8958 14 17.3562 14L15.6602 14C14.5556 14 13.6602 14.8954 13.6602 16L13.6602 28C13.6602 29.1046 14.5556 30 15.6602 30L17.3562 30C18.8958 30 19.8581 31.6667 19.0883 33L13.8922 42C13.1224 43.3333 11.1979 43.3333 10.4281 42L5.23203 33Z"/>
</mask>
<path d="M5.23203 33C4.46224 31.6667 5.42449 30 6.96408 30L8.66016 30C9.76473 30 10.6602 29.1046 10.6602 28L10.6602 16C10.6602 14.8954 9.76473 14 8.66016 14L6.96408 14C5.42449 14 4.46224 12.3333 5.23203 11L10.4281 2.00004C11.1979 0.666698 13.1224 0.666698 13.8922 2.00004L19.0883 11C19.8581 12.3333 18.8958 14 17.3562 14L15.6602 14C14.5556 14 13.6602 14.8954 13.6602 16L13.6602 28C13.6602 29.1046 14.5556 30 15.6602 30L17.3562 30C18.8958 30 19.8581 31.6667 19.0883 33L13.8922 42C13.1224 43.3333 11.1979 43.3333 10.4281 42L5.23203 33Z" fill="#00851A"/>
<path d="M13.8922 42L14.7582 42.5L13.8922 42ZM10.4281 42L11.2941 41.5L10.4281 42ZM19.0883 33L18.2223 32.5L19.0883 33ZM10.4281 2.00004L9.56207 1.50005L10.4281 2.00004ZM13.8922 2.00004L14.7582 1.50005L13.8922 2.00004ZM6.96408 30L6.96408 31L8.66016 31L8.66016 30L8.66016 29L6.96408 29L6.96408 30ZM10.6602 28L11.6602 28L11.6602 16L10.6602 16L9.66016 16L9.66016 28L10.6602 28ZM8.66016 14L8.66016 13L6.96408 13L6.96408 14L6.96408 15L8.66016 15L8.66016 14ZM5.23203 11L6.09806 11.5L11.2941 2.50004L10.4281 2.00004L9.56207 1.50005L4.366 10.5L5.23203 11ZM13.8922 2.00004L13.0262 2.50004L18.2223 11.5L19.0883 11L19.9543 10.5L14.7582 1.50005L13.8922 2.00004ZM17.3562 14L17.3562 13L15.6602 13L15.6602 14L15.6602 15L17.3562 15L17.3562 14ZM13.6602 16L12.6602 16L12.6602 28L13.6602 28L14.6602 28L14.6602 16L13.6602 16ZM15.6602 30L15.6602 31L17.3562 31L17.3562 30L17.3562 29L15.6602 29L15.6602 30ZM19.0883 33L18.2223 32.5L13.0262 41.5L13.8922 42L14.7582 42.5L19.9543 33.5L19.0883 33ZM10.4281 42L11.2941 41.5L6.09805 32.5L5.23203 33L4.366 33.5L9.56207 42.5L10.4281 42ZM13.8922 42L13.0262 41.5C12.6413 42.1666 11.679 42.1666 11.2941 41.5L10.4281 42L9.56207 42.5C10.7168 44.5 13.6035 44.5 14.7582 42.5L13.8922 42ZM17.3562 30L17.3562 31C18.126 31 18.6072 31.8333 18.2223 32.5L19.0883 33L19.9543 33.5C21.109 31.5 19.6656 29 17.3562 29L17.3562 30ZM13.6602 28L12.6602 28C12.6602 29.6569 14.0033 31 15.6602 31L15.6602 30L15.6602 29C15.1079 29 14.6602 28.5523 14.6602 28L13.6602 28ZM15.6602 14L15.6602 13C14.0033 13 12.6602 14.3431 12.6602 16L13.6602 16L14.6602 16C14.6602 15.4477 15.1079 15 15.6602 15L15.6602 14ZM19.0883 11L18.2223 11.5C18.6072 12.1667 18.126 13 17.3562 13L17.3562 14L17.3562 15C19.6656 15 21.109 12.5 19.9543 10.5L19.0883 11ZM10.4281 2.00004L11.2941 2.50004C11.679 1.83337 12.6413 1.83337 13.0262 2.50004L13.8922 2.00004L14.7582 1.50005C13.6035 -0.49997 10.7168 -0.49997 9.56207 1.50005L10.4281 2.00004ZM6.96408 14L6.96408 13C6.19428 13 5.71316 12.1667 6.09806 11.5L5.23203 11L4.366 10.5C3.21131 12.5 4.65469 15 6.96408 15L6.96408 14ZM10.6602 16L11.6602 16C11.6602 14.3431 10.317 13 8.66016 13L8.66016 14L8.66016 15C9.21244 15 9.66016 15.4477 9.66016 16L10.6602 16ZM8.66016 30L8.66016 31C10.317 31 11.6602 29.6569 11.6602 28L10.6602 28L9.66016 28C9.66016 28.5523 9.21244 29 8.66016 29L8.66016 30ZM6.96408 30L6.96408 29C4.65469 29 3.21131 31.5 4.366 33.5L5.23203 33L6.09805 32.5C5.71316 31.8333 6.19429 31 6.96408 31L6.96408 30Z" fill="#56FF77" mask="url(#path-2-outside-1_8307_6281)"/>
</g>
</g>
<path d="M12 17.5C15.1237 17.5 17.9281 18.0513 19.9326 18.9229C20.9356 19.3589 21.716 19.8655 22.2383 20.4023C22.7582 20.9369 23 21.4762 23 22C23 22.5238 22.7582 23.0631 22.2383 23.5977C21.716 24.1345 20.9356 24.6411 19.9326 25.0771C17.9281 25.9487 15.1237 26.5 12 26.5C8.87628 26.5 6.07189 25.9487 4.06738 25.0771C3.06442 24.6411 2.28402 24.1345 1.76172 23.5977C1.24177 23.0631 1 22.5238 1 22C1 21.4762 1.24177 20.9369 1.76172 20.4023C2.28402 19.8655 3.06442 19.3589 4.06738 18.9229C6.07189 18.0513 8.87628 17.5 12 17.5Z" fill="#00851A" fill-opacity="0.3" stroke="#56FF77"/>
<ellipse cx="12" cy="22" rx="5.5" ry="2" fill="#56FF77"/>
<mask id="mask1_8307_6281" style="mask-type:alpha" maskUnits="userSpaceOnUse" x="-2" y="-2" width="26" height="24">
<path d="M-2 -1.5L23.5 -1L23 22H-0.5L-2 -1.5Z" fill="#E0E0E0"/>
</mask>
<g mask="url(#mask1_8307_6281)">
<mask id="path-7-outside-2_8307_6281" maskUnits="userSpaceOnUse" x="3.82031" y="-7.43094e-07" width="17" height="44" fill="black">
<rect fill="white" x="3.82031" y="-7.43094e-07" width="17" height="44"/>
<path d="M5.23203 33C4.46224 31.6667 5.42449 30 6.96408 30L8.66016 30C9.76473 30 10.6602 29.1046 10.6602 28L10.6602 16C10.6602 14.8954 9.76473 14 8.66016 14L6.96408 14C5.42449 14 4.46224 12.3333 5.23203 11L10.4281 2.00004C11.1979 0.666698 13.1224 0.666698 13.8922 2.00004L19.0883 11C19.8581 12.3333 18.8958 14 17.3562 14L15.6602 14C14.5556 14 13.6602 14.8954 13.6602 16L13.6602 28C13.6602 29.1046 14.5556 30 15.6602 30L17.3562 30C18.8958 30 19.8581 31.6667 19.0883 33L13.8922 42C13.1224 43.3333 11.1979 43.3333 10.4281 42L5.23203 33Z"/>
</mask>
<path d="M5.23203 33C4.46224 31.6667 5.42449 30 6.96408 30L8.66016 30C9.76473 30 10.6602 29.1046 10.6602 28L10.6602 16C10.6602 14.8954 9.76473 14 8.66016 14L6.96408 14C5.42449 14 4.46224 12.3333 5.23203 11L10.4281 2.00004C11.1979 0.666698 13.1224 0.666698 13.8922 2.00004L19.0883 11C19.8581 12.3333 18.8958 14 17.3562 14L15.6602 14C14.5556 14 13.6602 14.8954 13.6602 16L13.6602 28C13.6602 29.1046 14.5556 30 15.6602 30L17.3562 30C18.8958 30 19.8581 31.6667 19.0883 33L13.8922 42C13.1224 43.3333 11.1979 43.3333 10.4281 42L5.23203 33Z" fill="#194D1E"/>
<path d="M13.8922 42L14.7582 42.5L13.8922 42ZM10.4281 42L11.2941 41.5L10.4281 42ZM19.0883 33L18.2223 32.5L19.0883 33ZM10.4281 2.00004L9.56207 1.50005L10.4281 2.00004ZM13.8922 2.00004L14.7582 1.50005L13.8922 2.00004ZM6.96408 30L6.96408 31L8.66016 31L8.66016 30L8.66016 29L6.96408 29L6.96408 30ZM10.6602 28L11.6602 28L11.6602 16L10.6602 16L9.66016 16L9.66016 28L10.6602 28ZM8.66016 14L8.66016 13L6.96408 13L6.96408 14L6.96408 15L8.66016 15L8.66016 14ZM5.23203 11L6.09806 11.5L11.2941 2.50004L10.4281 2.00004L9.56207 1.50005L4.366 10.5L5.23203 11ZM13.8922 2.00004L13.0262 2.50004L18.2223 11.5L19.0883 11L19.9543 10.5L14.7582 1.50005L13.8922 2.00004ZM17.3562 14L17.3562 13L15.6602 13L15.6602 14L15.6602 15L17.3562 15L17.3562 14ZM13.6602 16L12.6602 16L12.6602 28L13.6602 28L14.6602 28L14.6602 16L13.6602 16ZM15.6602 30L15.6602 31L17.3562 31L17.3562 30L17.3562 29L15.6602 29L15.6602 30ZM19.0883 33L18.2223 32.5L13.0262 41.5L13.8922 42L14.7582 42.5L19.9543 33.5L19.0883 33ZM10.4281 42L11.2941 41.5L6.09805 32.5L5.23203 33L4.366 33.5L9.56207 42.5L10.4281 42ZM13.8922 42L13.0262 41.5C12.6413 42.1666 11.679 42.1666 11.2941 41.5L10.4281 42L9.56207 42.5C10.7168 44.5 13.6035 44.5 14.7582 42.5L13.8922 42ZM17.3562 30L17.3562 31C18.126 31 18.6072 31.8333 18.2223 32.5L19.0883 33L19.9543 33.5C21.109 31.5 19.6656 29 17.3562 29L17.3562 30ZM13.6602 28L12.6602 28C12.6602 29.6569 14.0033 31 15.6602 31L15.6602 30L15.6602 29C15.1079 29 14.6602 28.5523 14.6602 28L13.6602 28ZM15.6602 14L15.6602 13C14.0033 13 12.6602 14.3431 12.6602 16L13.6602 16L14.6602 16C14.6602 15.4477 15.1079 15 15.6602 15L15.6602 14ZM19.0883 11L18.2223 11.5C18.6072 12.1667 18.126 13 17.3562 13L17.3562 14L17.3562 15C19.6656 15 21.109 12.5 19.9543 10.5L19.0883 11ZM10.4281 2.00004L11.2941 2.50004C11.679 1.83337 12.6413 1.83337 13.0262 2.50004L13.8922 2.00004L14.7582 1.50005C13.6035 -0.49997 10.7168 -0.49997 9.56207 1.50005L10.4281 2.00004ZM6.96408 14L6.96408 13C6.19428 13 5.71316 12.1667 6.09806 11.5L5.23203 11L4.366 10.5C3.21131 12.5 4.65469 15 6.96408 15L6.96408 14ZM10.6602 16L11.6602 16C11.6602 14.3431 10.317 13 8.66016 13L8.66016 14L8.66016 15C9.21244 15 9.66016 15.4477 9.66016 16L10.6602 16ZM8.66016 30L8.66016 31C10.317 31 11.6602 29.6569 11.6602 28L10.6602 28L9.66016 28C9.66016 28.5523 9.21244 29 8.66016 29L8.66016 30ZM6.96408 30L6.96408 29C4.65469 29 3.21131 31.5 4.366 33.5L5.23203 33L6.09805 32.5C5.71316 31.8333 6.19429 31 6.96408 31L6.96408 30Z" fill="#56FF77" mask="url(#path-7-outside-2_8307_6281)"/>
</g>
</g>
<defs>
<clipPath id="clip0_8307_6281">
<rect width="24" height="44" fill="white"/>
</clipPath>
</defs>
</svg>
