<svg width="24" height="24" viewBox="0 0 24 24" fill="none" xmlns="http://www.w3.org/2000/svg">
<g clip-path="url(#clip0_8214_4571)">
<path d="M6 3.5C8.48528 3.5 10.5 5.51472 10.5 8C10.5 8.25085 10.4779 8.49665 10.4385 8.73633L13.3564 10.4219L18.3877 7.51758C20.0617 6.5512 22.2024 7.12493 23.1689 8.79883L23.4189 9.23242L22.9854 9.48242L17.3574 12.7314L22.9863 15.9814L23.4189 16.2314L23.1689 16.665C22.2024 18.3389 20.0617 18.9128 18.3877 17.9463L13.3564 15.041L10.4883 16.6973C10.4949 16.7974 10.5 16.8982 10.5 17C10.5 19.3162 8.74988 21.2219 6.5 21.4707V21.5H5.5V21.4707C3.25012 21.2219 1.5 19.3162 1.5 17C1.5 14.5147 3.51472 12.5 6 12.5C6.91392 12.5 7.76377 12.7731 8.47363 13.2412L9.35645 12.7314L8.0752 11.9922C7.59433 12.2427 7.06309 12.4084 6.5 12.4707V12.5H5.5V12.4707C3.25012 12.2219 1.5 10.3162 1.5 8C1.5 5.51472 3.51472 3.5 6 3.5ZM6 15.5C5.17157 15.5 4.5 16.1716 4.5 17C4.5 17.8284 5.17157 18.5 6 18.5C6.82843 18.5 7.5 17.8284 7.5 17C7.5 16.1716 6.82843 15.5 6 15.5ZM6 6.5C5.17157 6.5 4.5 7.17157 4.5 8C4.5 8.82843 5.17157 9.5 6 9.5C6.82843 9.5 7.5 8.82843 7.5 8C7.5 7.17157 6.82843 6.5 6 6.5Z" fill="#006C16" stroke="#00FF33"/>
</g>
<defs>
<clipPath id="clip0_8214_4571">
<rect width="24" height="24" fill="white"/>
</clipPath>
</defs>
</svg>
