<svg width="24" height="24" viewBox="0 0 24 24" fill="none" xmlns="http://www.w3.org/2000/svg">
<path fill-rule="evenodd" clip-rule="evenodd" d="M12.4206 19.8006C13.1237 20.1291 13.9251 20.2693 14.752 20.1649C16.1248 19.9914 17.2615 19.1817 17.9039 18.0717C19.2196 18.0211 20.4935 17.3626 21.2814 16.1844C22.1136 14.94 22.2024 13.4158 21.6543 12.1379C21.5826 11.9707 21.5 11.8076 21.4067 11.6499C22.0191 10.5136 22.1091 9.11358 21.5285 7.85045C20.9032 6.49016 19.6507 5.61727 18.2749 5.41583C18.0605 5.38444 17.843 5.36932 17.6243 5.37115C16.9398 4.38042 15.8414 3.68489 14.5494 3.55434C13.6347 3.46192 12.7586 3.66656 12.0169 4.08925C10.9698 3.54757 9.70394 3.4411 8.51865 3.90163C7.60078 4.25826 6.87704 4.89848 6.40836 5.68228C5.04353 5.6347 3.68016 6.24358 2.81575 7.43068C1.93449 8.64093 1.78499 10.1603 2.28156 11.4591C2.3789 11.7137 2.50109 11.9599 2.6474 12.1939C2.11027 13.2544 2.01789 14.533 2.50061 15.7208C3.06427 17.1077 4.27641 18.0359 5.64182 18.2988C5.91282 18.351 6.19002 18.377 6.46947 18.3753C7.09008 19.4248 8.15483 20.2014 9.45246 20.4119C10.5262 20.5862 11.571 20.342 12.4206 19.8006ZM16.8974 8.06917C17.0523 6.53615 15.9351 5.16782 14.402 5.01292C14.0226 4.97458 13.6532 5.01407 13.3096 5.11863C13.6065 5.46951 13.8512 5.87485 14.027 6.32731C14.1736 6.70466 13.9866 7.12941 13.6092 7.27602C13.2319 7.42263 12.8071 7.23559 12.6605 6.85824C12.1025 5.42201 10.4858 4.71009 9.04958 5.26812C8.61389 5.4374 8.24467 5.70401 7.95734 6.03376C8.23586 6.1555 8.50555 6.30913 8.76143 6.49545C9.08869 6.73375 9.1608 7.19223 8.92251 7.51949C8.68421 7.84674 8.22573 7.91886 7.89847 7.68056C6.65288 6.77356 4.90786 7.04804 4.00086 8.29364C3.42895 9.07904 3.32591 10.0631 3.64229 10.9127C3.98884 10.6099 4.39079 10.3586 4.84104 10.1757C5.21608 10.0232 5.64366 10.2037 5.79608 10.5788C5.9485 10.9538 5.76802 11.3814 5.39298 11.5338C3.96553 12.1139 3.27863 13.7414 3.85875 15.1688C4.22782 16.077 5.02041 16.6862 5.919 16.8592C5.92163 16.8597 5.92426 16.8602 5.92689 16.8607C5.86051 16.4304 5.85959 15.9824 5.9331 15.5293C5.99793 15.1297 6.37443 14.8584 6.77403 14.9232C7.17363 14.988 7.44501 15.3645 7.38018 15.7641C7.1334 17.2851 8.16632 18.7181 9.68725 18.9649C10.1771 19.0443 10.6579 18.9913 11.0931 18.8316C10.5104 18.2024 10.1119 17.3917 9.99618 16.476C9.94543 16.0744 10.2299 15.7076 10.6315 15.6569C11.0331 15.6061 11.3999 15.8906 11.4506 16.2922C11.6438 17.8209 13.0396 18.9036 14.5682 18.7104C15.2554 18.6236 15.8527 18.2941 16.2847 17.8176C15.9717 17.7031 15.6672 17.5498 15.3778 17.3562C15.0413 17.1312 14.9509 16.676 15.176 16.3395C15.401 16.003 15.8562 15.9126 16.1927 16.1376C17.4736 16.9942 19.2062 16.6503 20.0628 15.3695C20.5676 14.6146 20.6562 13.7028 20.3798 12.904C20.0998 13.1361 19.7851 13.3358 19.439 13.4949C19.0712 13.664 18.6359 13.5028 18.4668 13.135C18.2978 12.7672 18.4589 12.3319 18.8267 12.1629C20.2267 11.5193 20.84 9.86273 20.1965 8.46271C19.8211 7.64617 19.1015 7.09656 18.2867 6.90857C18.3751 7.32775 18.4013 7.76752 18.3559 8.21655C18.3152 8.61933 17.9557 8.91285 17.553 8.87215C17.1502 8.83146 16.8567 8.47195 16.8974 8.06917Z" fill="#232729"/>
</svg>
