<svg width="24" height="24" viewBox="0 0 24 24" fill="none" xmlns="http://www.w3.org/2000/svg">
<g transform="translate(3, 2)">
<path d="M0 7H2V11H0V7Z" fill="#232729"/>
<path d="M16 6H18V10H16V6Z" fill="#232729"/>
<path d="M7 2.38419e-07H11V2H7V2.38419e-07Z" fill="#232729"/>
<path d="M4.76837e-07 2.38419e-07L0 5H2L2 2L5 2V0L4.76837e-07 2.38419e-07Z" fill="#232729"/>
<path d="M18 2.38419e-07L13 6.3573e-08V2H16V4H18V2.38419e-07Z" fill="#232729"/>
<path d="M0 18H6V16H2L2 13H0V18Z" fill="#232729"/>
<path d="M6.16422 5.14103L8.62963 20.3784L11.7032 13.8067L18.5346 13.6653L6.16422 5.14103Z" fill="#232729"/>
</g>
</svg>
