<svg width="24" height="24" viewBox="0 0 24 24" fill="none" xmlns="http://www.w3.org/2000/svg">
<g transform="translate(2.75, 1.75)">
<path d="M3.05954 1.50215C4.06188 0.19729 6.06524 -0.33139 7.96383 0.211139L8.29196 0.315631C10.0423 0.929182 13.4482 2.91633 18.2783 7.73458L18.3486 7.81172C18.6508 8.18265 18.6445 8.71743 18.3398 9.08419L18.2705 9.16036C17.897 9.52685 17.3136 9.54171 16.9189 9.21993L16.8427 9.15157C12.1098 4.43247 8.96954 2.69668 7.64938 2.22774L7.40915 2.15059C6.14814 1.79031 5.11889 2.20159 4.70016 2.68087L4.62497 2.77754C4.47221 2.99851 4.42794 3.23737 4.5361 3.52559L4.59469 3.65547C4.75809 3.97524 5.13123 4.40817 5.90622 4.87325L7.91403 6.08614C9.8191 7.25335 11.3893 8.29295 12.3886 9.28438L12.6347 9.54024C13.1932 10.1489 13.6272 10.8413 13.7295 11.635L13.747 11.8137C13.7961 12.5836 13.5162 13.2883 13.0302 13.9231L12.792 14.2111C12.3921 14.6596 11.897 14.9098 11.3613 14.9826L11.1289 15.0031C10.6209 15.024 10.1259 14.8934 9.67966 14.7131L9.49118 14.633C8.79034 14.3203 8.04785 13.8251 7.34274 13.3205L6.65231 12.8195L6.54391 12.7395C5.68074 12.1073 4.91845 11.5593 4.2568 11.2297L3.97946 11.1027C3.71491 10.9922 3.51883 10.946 3.37887 10.9348L3.2568 10.9338C3.18365 10.94 3.11948 10.9585 3.04782 11.0188L2.97262 11.094C2.78628 11.3127 2.72003 11.4687 2.69723 11.5686L2.68649 11.6506C2.68357 11.7388 2.71031 11.8774 2.86227 12.094L3.00778 12.2795C3.38582 12.7152 4.02833 13.1798 4.85837 13.7336L5.15622 13.9309L5.76755 14.34C6.38961 14.763 7.02273 15.2264 7.49508 15.7199L7.63083 15.8674C7.94318 16.221 8.22524 16.6475 8.35739 17.1506L8.40622 17.382C8.48033 17.8457 8.41305 18.3135 8.20505 18.7649L8.08981 18.9895C7.61155 19.8245 6.88547 20.2842 6.07516 20.4387L5.91208 20.466C5.19081 20.5661 4.4469 20.4317 3.76852 20.2024L3.48141 20.0988C2.42841 19.6925 1.39059 19.0198 0.60153 18.3342L0.279264 18.0402C-0.144572 17.6334 -0.0614204 16.9805 0.363249 16.632L0.446256 16.5695C0.873511 16.2857 1.4399 16.3737 1.8027 16.7033L2.0488 16.9172C2.6505 17.4177 3.43343 17.9182 4.20798 18.217L4.42282 18.2941C4.91268 18.4588 5.32492 18.51 5.63473 18.467L5.74411 18.4475C5.99201 18.3905 6.18331 18.2581 6.33883 17.9865L6.39352 17.8723C6.40537 17.8399 6.41172 17.8121 6.41501 17.7893C6.41813 17.7673 6.41851 17.7464 6.41696 17.7258L6.40622 17.6633C6.38431 17.58 6.32548 17.4572 6.1943 17.2932L6.03805 17.1145C5.69515 16.7562 5.21125 16.4019 4.63571 16.0109L3.73923 15.4113C2.91819 14.8636 1.94291 14.1986 1.32907 13.4123L1.2109 13.2531C0.891102 12.7975 0.647842 12.2348 0.669889 11.5822L0.690397 11.3381C0.766387 10.7761 1.03591 10.2567 1.43747 9.78536L1.61032 9.60079C2.02767 9.19425 2.53474 8.97077 3.08786 8.92403L3.30856 8.91426C3.82139 8.91377 4.31687 9.05708 4.75778 9.24141L5.1318 9.41231C6.01095 9.84779 6.92504 10.5184 7.7363 11.1125L7.7568 11.1272L8.46872 11.6457C9.15605 12.1389 9.77013 12.5488 10.3134 12.7912L10.5586 12.8898C10.7822 12.969 10.9408 12.9918 11.0459 12.9875L11.1181 12.9787C11.1384 12.9743 11.1555 12.9683 11.1709 12.9611C11.2019 12.9467 11.2395 12.9206 11.2861 12.8684L11.4277 12.6984C11.6784 12.3733 11.7369 12.1413 11.7343 11.9719L11.7285 11.8918C11.7 11.672 11.5587 11.3541 11.1562 10.9133L10.9677 10.716C10.1314 9.88634 8.75336 8.96906 6.89059 7.82637L4.86813 6.60372C3.82277 5.9764 3.08391 5.23503 2.71676 4.40254L2.6484 4.23458C2.2957 3.29516 2.45711 2.36691 2.96579 1.63106L3.05954 1.50215Z" fill="#232729"/>
</g>
</svg>
