<svg width="24" height="24" viewBox="0 0 22 22" fill="none" xmlns="http://www.w3.org/2000/svg">
  <path d="M14.1422 9.89945C14.5173 9.52438 14.728 9.01567 14.728 8.48524C14.728 7.95481 14.5173 7.4461 14.1422 7.07103C13.7672 6.69595 13.2585 6.48524 12.728 6.48524C12.1976 6.48524 11.6889 6.69595 11.3138 7.07103L14.1422 9.89945Z" fill="#232729"/>
  <path d="M21.2132 1.41421L15.5564 7.07107L14.1421 5.65685L19.799 0L21.2132 1.41421Z" fill="#232729"/>
  <path d="M17.4528 12.3363L15.0086 10.7357L16.1039 9.06323L18.5481 10.6638L17.4528 12.3363Z" fill="#232729"/>
  <path d="M8.67409 3.56361L10.4878 6.22073L12.1396 5.09342L10.3259 2.4363L8.67409 3.56361Z" fill="#232729"/>
  <path d="M20 8.77815H16.9707V6.77815H20V8.77815Z" fill="#232729"/>
  <path d="M12.4351 0.999953V4.24214H14.4351V0.999954L12.4351 0.999953Z" fill="#232729"/>
  <path fill-rule="evenodd" clip-rule="evenodd" d="M14.1421 11.3138L9.8995 7.07112L0 16.9706L4.24264 21.2133L14.1421 11.3138ZM9.00008 13C9.55237 13 10.0001 12.5522 10.0001 12C10.0001 11.4477 9.55237 11 9.00008 11C8.4478 11 8.00008 11.4477 8.00008 12C8.00008 12.5522 8.4478 13 9.00008 13Z" fill="#232729"/>
</svg>
