<svg width="24" height="24" viewBox="6 6 24 24" fill="none" xmlns="http://www.w3.org/2000/svg">
<path d="M3.0141 33.9858L7.65651 33.9858C8.54741 33.9858 8.99357 32.9087 8.36361 32.2787L3.7212 27.6364C3.09123 27.0064 2.01409 27.4526 2.0141 28.3435L2.0141 32.9858C2.0141 33.5381 2.46182 33.9858 3.0141 33.9858Z" fill="#6A767C"/>
<path d="M12 28L8 24L9.6 22.4L11.2 24L12 23.2L10.4 21.6L12 20L12.8 20.8L13.6 20L12.8 19.2L14.4 17.6L16 19.2L16.8 18.4L15.2 16.8L16.8 15.2L17.6 16L18.4 15.2L17.6 14.4L19.2 12.8L20.8 14.4L21.6 13.6L20 12L21.6 10.4L22.4 11.2L23.2 10.4L22.4 9.6L24 8L28 12L12 28Z" fill="#232729"/>
</svg>
