<svg width="24" height="24" viewBox="0 0 24 24" fill="none" xmlns="http://www.w3.org/2000/svg">
<path d="M17 12C17 16.4183 13.4183 20 9 20C4.58172 20 1 16.4183 1 12C1 7.58172 4.58172 4 9 4C13.4183 4 17 7.58172 17 12Z" fill="#232729"/>
<path d="M15 4C19.4183 4 23 7.58172 23 12C23 16.4183 19.4183 20 15 20C14.457 20 13.9267 19.9449 13.4141 19.8418C14.2951 19.3448 15.0833 18.7044 15.748 17.9512C18.7086 17.5828 21 15.0603 21 12C21 8.93968 18.7086 6.41615 15.748 6.04785C15.0833 5.29475 14.295 4.65411 13.4141 4.15723C13.9267 4.05413 14.457 4 15 4Z" fill="#232729"/>
</svg>
