<svg width="24" height="24" viewBox="0 0 20 22" fill="none" xmlns="http://www.w3.org/2000/svg">
  <circle cx="10" cy="5" r="5" fill="#232729"/>
  <path d="M13 13.706C17.0571 14.2794 20 15.985 20 18C20 20.4853 15.5228 22.5 10 22.5C4.47715 22.5 0 20.4853 0 18C0 15.985 2.9429 14.2794 7 13.706V15.7285C5.72598 15.9297 4.61828 16.2509 3.75 16.6416C2.99947 16.9793 2.51413 17.3299 2.24316 17.6182C2.11273 17.7569 2.05085 17.8606 2.02344 17.9209C1.99861 17.9755 2 17.9979 2 18C2 18.0021 1.99861 18.0245 2.02344 18.0791C2.05085 18.1394 2.11273 18.2431 2.24316 18.3818C2.51413 18.6701 2.99947 19.0207 3.75 19.3584C5.24671 20.0318 7.45463 20.5 10 20.5C12.5454 20.5 14.7533 20.0318 16.25 19.3584C17.0005 19.0207 17.4859 18.6701 17.7568 18.3818C17.8873 18.2431 17.9492 18.1394 17.9766 18.0791C18.0014 18.0245 18 18.0021 18 18C18 17.9979 18.0014 17.9755 17.9766 17.9209C17.9492 17.8606 17.8873 17.7569 17.7568 17.6182C17.4859 17.3299 17.0005 16.9793 16.25 16.6416C15.3817 16.2509 14.274 15.9297 13 15.7285V13.706Z" fill="#232729"/>
  <rect x="9" y="8" width="2" height="9" fill="#232729"/>
</svg>
