<svg width="24" height="24" viewBox="6 6 24 24" fill="none" xmlns="http://www.w3.org/2000/svg">
<path d="M3.0141 33.9858L7.65651 33.9858C8.54741 33.9858 8.99357 32.9087 8.36361 32.2787L3.7212 27.6364C3.09123 27.0064 2.01409 27.4526 2.0141 28.3435L2.0141 32.9858C2.0141 33.5381 2.46182 33.9858 3.0141 33.9858Z" fill="#6A767C"/>
<path fill-rule="evenodd" clip-rule="evenodd" d="M27.0707 7.75305L27.0604 15.253L19.5604 15.2428L19.5638 12.7428L22.898 12.7474C21.8005 11.6098 20.3053 11.0128 18.8104 10.8726C15.0988 10.5245 11.8077 13.2511 11.4596 16.9628C11.4272 17.3082 11.4214 17.6499 11.4406 17.9858L11.4556 18.25H8.94896L8.93845 18.011C8.91989 17.5892 8.93001 17.1613 8.97053 16.7293C9.44759 11.643 13.9576 7.90648 19.0439 8.38354C20.9609 8.56335 23.0051 9.33125 24.5664 10.8764L24.5707 7.74963L27.0707 7.75305ZM8.9292 28.2469L8.93944 20.7469L16.4394 20.7572L16.436 23.2572L13.1019 23.2526C14.1994 24.3901 15.6946 24.9871 17.1894 25.1273C20.9011 25.4755 24.1921 22.7488 24.5403 19.0372C24.5727 18.6917 24.5784 18.3501 24.5593 18.0142L24.5443 17.75H27.0509L27.0614 17.989C27.08 18.4108 27.0699 18.8387 27.0293 19.2706C26.5523 24.3569 22.0423 28.0935 16.956 27.6164C15.0389 27.4366 12.9948 26.6687 11.4335 25.1235L11.4292 28.2503L8.9292 28.2469Z" fill="#232729"/>
</svg>
