<svg width="24" height="24" viewBox="0 0 24 24" fill="none" xmlns="http://www.w3.org/2000/svg">
<path d="M4.84535 5.01021L12.1182 1.05104L19.391 5.01021L12.1182 9.46427L4.84535 5.01021Z" fill="#232729"/>
<path d="M4.3605 6V11.5136L11.601 15.4728L11.6333 10.4541L4.3605 6Z" fill="#232729"/>
<path d="M12.6353 15.4728L19.8758 11.5136V6L12.603 10.4541L12.6353 15.4728Z" fill="#232729"/>
<path fill-rule="evenodd" clip-rule="evenodd" d="M4.64639 8.42487L5.10896 9.36224L2.93105 10.4656L12.1182 15.1198L21.3053 10.4656L19.1274 9.36224L19.5899 8.42487L23.6182 10.4656L12.1182 16.2915L0.618164 10.4656L4.64639 8.42487Z" fill="#232729"/>
<path fill-rule="evenodd" clip-rule="evenodd" d="M19.8758 14.6576H17.8071V16.63L16.3102 17.3883L17.2353 19.2631L19.8758 17.9254V14.6576Z" fill="#232729"/>
<path fill-rule="evenodd" clip-rule="evenodd" d="M4.3605 14.6576H6.42921V16.63L7.92614 17.3883L7.00099 19.2631L4.3605 17.9254V14.6576Z" fill="#232729"/>
<path fill-rule="evenodd" clip-rule="evenodd" d="M8.70206 20.3376L9.65137 18.4753L12.1101 19.762L14.4753 18.482L15.4499 20.3309L12.1262 22.1295L8.70206 20.3376Z" fill="#232729"/>
</svg>
