<svg width="31" height="28" viewBox="0 0 31 28" fill="none" xmlns="http://www.w3.org/2000/svg">
<path d="M6.40137 2.5C9.66135 2.50009 12.3027 5.14811 12.3027 8.41211C12.3027 8.78388 12.2658 9.14722 12.2002 9.5L16.335 11.8926L23.2158 7.91309C25.3929 6.65367 28.1761 7.40087 29.4326 9.58105L29.6816 10.0137L29.25 10.2637L21.3838 14.8135L29.25 19.3643L29.6826 19.6143L29.4336 20.0459C28.1772 22.2264 25.3931 22.9743 23.2158 21.7148L16.335 17.7344L12.2783 20.0801C12.2926 20.2475 12.3027 20.4168 12.3027 20.5879C12.3027 23.8519 9.66135 26.4999 6.40137 26.5C3.1413 26.5 0.5 23.8519 0.5 20.5879C0.500186 17.324 3.14142 14.6768 6.40137 14.6768C7.63896 14.6768 8.7868 15.0589 9.73535 15.7109L11.2861 14.8135L9.20898 13.6123C8.3741 14.0656 7.41793 14.3232 6.40137 14.3232C3.14142 14.3232 0.500186 11.676 0.5 8.41211C0.5 5.14805 3.1413 2.5 6.40137 2.5ZM6.40137 18.3828C5.18704 18.3828 4.20038 19.3689 4.2002 20.5879C4.2002 21.8071 5.18693 22.7939 6.40137 22.7939C7.61573 22.7939 8.60156 21.807 8.60156 20.5879C8.60138 19.3689 7.61561 18.3829 6.40137 18.3828ZM6.40137 6.20605C5.18693 6.20605 4.2002 7.19291 4.2002 8.41211C4.20038 9.63115 5.18704 10.6172 6.40137 10.6172C7.61561 10.6171 8.60138 9.63109 8.60156 8.41211C8.60156 7.19297 7.61573 6.20615 6.40137 6.20605Z" fill="#006C16" stroke="#00FF33"/>
</svg>
