<svg width="36" height="36" viewBox="0 0 36 36" fill="none" xmlns="http://www.w3.org/2000/svg">
<path d="M10 8H26V10H10V8Z" fill="#232729"/>
<path d="M10 8L10 27H8L8 8L10 8Z" fill="#232729"/>
<path d="M28 8V27H26V8H28Z" fill="#232729"/>
<path d="M10 26H26V28H10V26Z" fill="#232729"/>
<path d="M7 7H11V11H7V7Z" fill="#232729"/>
<path d="M25 7H29V11H25V7Z" fill="#232729"/>
<path d="M25 25H29V29H25V25Z" fill="#232729"/>
<path d="M7 25H11V29H7V25Z" fill="#232729"/>
<path d="M15 15H24V24H15V15Z" fill="#232729"/>
<path d="M12 21H14V14H21V12H12V21Z" fill="#232729"/>
</svg>
