<svg width="24" height="24" viewBox="0 0 24 24" fill="none" xmlns="http://www.w3.org/2000/svg">
<path fill-rule="evenodd" clip-rule="evenodd" d="M14.837 13.4227C15.3605 12.6322 15.6654 11.684 15.6654 10.6654C15.6654 7.90395 13.4268 5.66537 10.6654 5.66537C7.90398 5.66537 5.66541 7.90395 5.66541 10.6654C5.66541 13.4268 7.90398 15.6654 10.6654 15.6654C11.6841 15.6654 12.6323 15.3604 13.4228 14.837L17.0586 18.4728L18.4728 17.0586L14.837 13.4227ZM10.6654 13.6654C12.3223 13.6654 13.6654 12.3222 13.6654 10.6654C13.6654 9.00852 12.3223 7.66537 10.6654 7.66537C9.00855 7.66537 7.66541 9.00852 7.66541 10.6654C7.66541 12.3222 9.00855 13.6654 10.6654 13.6654Z" fill="#232729"/>
</svg>
