<svg width="24" height="24" viewBox="0 0 24 24" fill="none" xmlns="http://www.w3.org/2000/svg">
<path d="M16.6192 10.098L16.6202 10.1129C16.5333 9.90913 16.4431 9.69958 16.3298 9.50336C16.2166 9.30714 16.0927 9.13245 15.9597 8.95533L15.9721 8.96354L16.7404 7.04244L13.9325 5.41666L12.663 7.04242L12.6721 7.04486C12.2388 6.98727 11.7966 6.98098 11.3523 7.03751L11.3581 7.03418L10.0733 5.42144L7.26341 7.04415L8.03223 8.96253L8.03799 8.9592C7.76687 9.31584 7.55125 9.70199 7.38447 10.1061L7.38691 10.097L5.33544 10.3814L5.33337 13.6299L7.38081 13.9249L7.37992 13.9101C7.46677 14.1139 7.55606 14.3085 7.66932 14.5047C7.78259 14.701 7.91315 14.8872 8.05193 15.061L8.0395 15.0528L7.37749 16.7048L7.27369 16.9648L10.0749 18.579L11.3535 16.9557L11.3286 16.9393C11.771 16.9993 12.2132 17.0056 12.6633 16.9457L12.646 16.9557L13.9316 18.5833L16.73 16.9673C16.73 16.9673 16.6874 16.8534 16.6247 16.7049L15.9612 15.0489L15.9554 15.0523C16.2266 14.6956 16.4479 14.3061 16.6172 13.8929L16.619 13.9227L18.6638 13.6267L18.6667 10.3931C18.6667 10.3931 18.546 10.3705 18.3897 10.353L16.6192 10.098ZM13.1626 14.0257C12.049 14.6687 10.6202 14.2858 9.97726 13.1719C9.33433 12.0581 9.7172 10.6289 10.8308 9.98578C11.9444 9.3427 13.3732 9.72565 14.0162 10.8395C14.6591 11.9533 14.2762 13.3826 13.1626 14.0257Z" fill="#232729"/>
</svg>
