<svg width="24" height="24" viewBox="0 0 24 24" fill="none" xmlns="http://www.w3.org/2000/svg">
<path d="M8.5 4H19V6H8.5V4Z" fill="#232729"/>
<path d="M14 11H19V13H14V11Z" fill="#232729"/>
<path d="M9 18H19V20H9V18Z" fill="#232729"/>
<path d="M24 5C24 6.65685 22.6569 8 21 8C19.3431 8 18 6.65685 18 5C18 3.34315 19.3431 2 21 2C22.6569 2 24 3.34315 24 5Z" fill="#232729"/>
<path d="M24 12C24 13.6569 22.6569 15 21 15C19.3431 15 18 13.6569 18 12C18 10.3431 19.3431 9 21 9C22.6569 9 24 10.3431 24 12Z" fill="#232729"/>
<path d="M24 19C24 20.6569 22.6569 22 21 22C19.3431 22 18 20.6569 18 19C18 17.3431 19.3431 16 21 16C22.6569 16 24 17.3431 24 19Z" fill="#232729"/>
<path d="M8.5 11.5L2 7L8.5 3L15 7L8.5 11.5Z" fill="#232729"/>
<path d="M1 16V8L8 12.5V21L1 16Z" fill="#232729"/>
<path d="M9 21V12.5L16 8V16L9 21Z" fill="#232729"/>
</svg>
