<svg width="24" height="24" viewBox="0 0 24 24" fill="none" xmlns="http://www.w3.org/2000/svg">
<path fill-rule="evenodd" clip-rule="evenodd" d="M16.2554 14.1341C17.0406 12.9483 17.498 11.526 17.498 9.99805C17.498 5.85591 14.1402 2.49805 9.99805 2.49805C5.85591 2.49805 2.49805 5.85591 2.49805 9.99805C2.49805 14.1402 5.85591 17.498 9.99805 17.498C11.526 17.498 12.9483 17.0406 14.1341 16.2554L19.5878 21.7091L21.7091 19.5878L16.2554 14.1341ZM9.99805 14.498C12.4833 14.498 14.498 12.4833 14.498 9.99805C14.498 7.51277 12.4833 5.49805 9.99805 5.49805C7.51277 5.49805 5.49805 7.51277 5.49805 9.99805C5.49805 12.4833 7.51277 14.498 9.99805 14.498Z" fill="#232729"/>
</svg>
